<svg xmlns="http://www.w3.org/2000/svg" width="800" height="800" version="1" viewBox="0 0 600 600"><path d="M188.6 166.2c-.7 1.8-26.2 60.4-56.6 130.3-30.4 69.8-56.1 128.9-57.1 131.2l-1.8 4.3h53.8l11.9-30.3 12-30.2 58.5-.3 58.5-.2 5.4 13.2c3 7.3 8.6 21.1 12.4 30.5l6.9 17.3h27.4c25.6 0 27.3-.1 26.8-1.8-.3-.9-26-60.9-57.2-133.2-31.2-72.3-56.9-132.1-57.2-132.8-.4-.9-5.6-1.2-21.4-1.2H190l-1.4 3.2zM230.3 275c10.7 28.3 19.8 52.3 20.2 53.2.7 1.7-1.7 1.8-41 1.8-41.6 0-41.7 0-41.2-2.1 2-7.6 41.2-106.8 41.8-105.7.4.7 9.5 24.5 20.2 52.8zM435.2 245.1c-23.2 2.2-45 10.9-61.4 24.3-2.1 1.7-3.8 3.5-3.8 3.9 0 .5 4.8 6.5 10.8 13.5 5.9 6.9 11 13 11.3 13.5.4.5 3.3-1.2 6.5-3.9 6.3-5.1 21.1-12.5 28.4-14.2 25.7-6 51.5 3.6 55.9 20.7.5 2 1.3 6.1 1.6 9.2l.7 5.6-15.4.7c-51.3 2.3-77.7 9.5-95.8 26.3-11.3 10.4-16 23.4-14.7 40.2 1.9 24.2 18.3 42.1 45.2 49.2 10.9 2.9 33.9 3.2 43.5.5 14.9-4.1 27.8-12.8 35.2-23.6 1.6-2.4 1.7-2.1 1.7 9.2l.1 11.8h43v-59.3c0-63.7-.4-70.6-5.3-84-3.5-9.6-7.3-15.4-15.1-23.3-5.6-5.6-9.1-8.1-16.6-11.7-11.3-5.6-17.9-7.4-32-8.7-11.5-1.1-11.7-1.1-23.8.1zm49.3 112.1c-1.3 16.1-4.6 24.5-12.4 32.5-8.7 8.8-21.5 12.9-38.1 12-14.5-.7-23-4.9-27.1-13.4-3.1-6.3-2.3-15.7 1.7-21.1 3.8-5 4.8-5.8 12.8-9.7 11.5-5.7 26.1-8.1 51.5-8.4l12.3-.1-.7 8.2z"/></svg>