<svg xmlns="http://www.w3.org/2000/svg" width="250" height="55" fill="none" viewBox="0 0 250 55">
  <path fill="#fff" d="M20.2328 25.2915c-1.9665.8419-4.1983 1.7965-7.0907 1.7965a13.426 13.426 0 0 1-3.5796-.4935L11.563 47.133a3.431 3.431 0 0 0 3.4205 3.1495s2.8364.1473 3.7829.1473c1.0186 0 4.0731-.1473 4.0731-.1473a3.4315 3.4315 0 0 0 3.4197-3.1495l2.1426-22.6959c-.9574-.327-1.9238-.5443-3.0131-.5443-1.8841-.0008-3.4022.6482-5.1559 1.3987Z"/>
  <path fill="#0D0C22" d="m37.6511 14.6333-.3013-1.5195c-.2703-1.3633-.8838-2.6515-2.2832-3.1443-.4486-.1576-.9576-.2254-1.3015-.5517-.344-.3262-.4457-.833-.5252-1.3029-.1473-.8625-.2858-1.7257-.4368-2.5868-.1303-.7402-.2335-1.5718-.573-2.2509-.4419-.9118-1.3589-1.445-2.2708-1.7979a13.079 13.079 0 0 0-1.4281-.4419c-2.2781-.601-4.6734-.822-7.0171-.948a58.913 58.913 0 0 0-8.4401.14c-2.0888.19-4.2889.4199-6.2739 1.1424-.7254.2644-1.473.5819-2.0247 1.1424-.677.6887-.8979 1.7537-.4037 2.6125.3514.6099.9465 1.0407 1.5777 1.3258a12.7967 12.7967 0 0 0 2.5618.8338c2.4526.542 4.993.755 7.4987.8455a57.1043 57.1043 0 0 0 8.323-.2718 47.2888 47.2888 0 0 0 2.0468-.2703c.8021-.123 1.317-1.1718 1.0805-1.9025-.2828-.8735-1.0429-1.2123-1.9025-1.0805a33.7235 33.7235 0 0 1-.3793.0567l-.0913.0133a52.7909 52.7909 0 0 1-.8736.1031 46.28 46.28 0 0 1-1.8089.1591c-1.3538.0943-2.7113.1377-4.0679.14-1.3332 0-2.6671-.0376-3.9973-.1253a50.8537 50.8537 0 0 1-1.8163-.1517 43.995 43.995 0 0 1-.8228-.0928l-.2607-.0332-.0567-.008-.2703-.039c-.5524-.0833-1.1048-.179-1.6513-.2947a.2485.2485 0 0 1-.1945-.2423.2484.2484 0 0 1 .1945-.2424h.0103c.4736-.1009.9509-.187 1.4296-.2622.1596-.025.3197-.0496.4802-.0736h.0045c.2998-.0199.601-.0737.8993-.109a57.1945 57.1945 0 0 1 7.814-.2755c1.2661.0368 2.5315.1112 3.7917.2394.2711.028.5407.0574.8102.0906.1032.0125.207.0272.3108.0397l.2093.0303c.6098.0908 1.2164.201 1.8199.3307.8942.1944 2.0425.2578 2.4402 1.2373.1267.3109.1841.6563.2541.9826l.0891.4162a.1368.1368 0 0 1 .0052.0228c.2107.982.4216 1.9641.6327 2.9462a.5409.5409 0 0 1-.0859.4225.5393.5393 0 0 1-.3678.2249h-.0059l-.1289.0177-.1274.0169a70.4522 70.4522 0 0 1-1.2124.1473 78.0473 78.0473 0 0 1-2.3945.2357 83.7659 83.7659 0 0 1-4.775.26 85.7651 85.7651 0 0 1-2.4372.0302 84.5895 84.5895 0 0 1-9.6739-.5627 103.302 103.302 0 0 1-1.0429-.1304c.2696.0346-.196-.0265-.2902-.0397-.221-.031-.442-.0632-.6628-.0965-.7418-.1113-1.479-.2483-2.2193-.3683-.8949-.1473-1.7507-.0737-2.5602.3683a3.7237 3.7237 0 0 0-1.5416 1.5983c-.3491.7218-.453 1.5076-.6091 2.2833-.1562.7756-.3992 1.61-.3072 2.4062.1982 1.7184 1.3995 3.1149 3.1274 3.4272 1.6256.2946 3.26.5332 4.8987.7365a90.523 90.523 0 0 0 20.9747.1209 1.104 1.104 0 0 1 1.1609.7261c.0555.1552.0756.3208.0588.4847l-.1635 1.5895-.9884 9.6347a7785.272 7785.272 0 0 1-1.3325 12.9647c-.0943.9347-.1075 1.8988-.285 2.8224-.2799 1.4525-1.2632 2.3445-2.698 2.6708a18.826 18.826 0 0 1-4.0053.4684c-1.4945.0081-2.9882-.0582-4.4826-.0501-1.5954.0089-3.5494-.1385-4.781-1.3257-1.0819-1.043-1.2314-2.6759-1.3788-4.0879-.1964-1.8693-.391-3.7385-.584-5.6073L8.4589 30.4617l-.7005-6.7239c-.0118-.1113-.0236-.221-.0346-.333-.084-.8021-.6519-1.5872-1.5468-1.5467-.766.0338-1.6366.685-1.5467 1.5467l.5192 4.985 1.074 10.3116c.3058 2.929.611 5.8585.9154 8.7885.059.5612.1142 1.1239.1761 1.6851.3366 3.067 2.6788 4.7199 5.5793 5.1853 1.6941.2726 3.4293.3285 5.1485.3565 2.2037.0354 4.4296.1201 6.5972-.2791 3.2121-.5892 5.6221-2.7341 5.966-6.0611l.2946-2.8821c.3266-3.1779.6526-6.3561.9781-9.5345l1.0651-10.3853.4883-4.7596a1.1054 1.1054 0 0 1 .8898-.9715c.9184-.1789 1.7964-.4846 2.4497-1.1836 1.04-1.1129 1.247-2.5639.8795-4.0267ZM3.1005 15.6601c.014-.0067-.0118.1134-.0229.1694-.0022-.0847.0023-.1599.0229-.1694Zm.0891.6894c.0074-.0052.0295.0243.0523.0596-.0346-.0324-.0567-.0567-.053-.0596h.0007Zm.0876.1156c.0486.0877.0317.0538 0 0Zm.176.1429h.0045c0 .0052.0081.0103.011.0155a.1125.1125 0 0 0-.0162-.0155h.0008Zm30.8259-.2136c-.3299.3137-.8271.4596-1.3184.5325-5.5093.8176-11.0989 1.2315-16.6687 1.0489-3.9862-.1363-7.9304-.579-11.8768-1.1365-.3867-.0545-.8058-.1253-1.0717-.4103-.5008-.5377-.2548-1.6204-.1244-2.27.1193-.5951.3476-1.3884 1.0554-1.4731 1.1048-.1297 2.3879.3366 3.481.5023a65.9124 65.9124 0 0 0 3.9625.4825c5.6582.5155 11.4113.4353 17.0444-.319a71.1705 71.1705 0 0 0 3.0692-.4809c.9082-.1628 1.915-.4685 2.4638.4721.3763.6408.4264 1.4981.3682 2.2222a1.2385 1.2385 0 0 1-.3852.8293h.0007Z"/>
  <path fill="#0D0C23" fill-rule="evenodd" d="M67.6985 31.7017c-.3214.6141-.764 1.1487-1.3265 1.6025-.5631.454-1.2197.8237-1.9705 1.1084-.7502.2853-1.5057.4767-2.2649.5744-.7598.0979-1.4974.0894-2.2118-.0268-.7149-.1156-1.323-.3514-1.8229-.7079l.5632-5.8493c.518-.178 1.1699-.3606 1.9567-.5477a17.9282 17.9282 0 0 1 2.4257-.4005c.8311-.0803 1.6173-.0708 2.3597.0268.7405.0979 1.3264.3337 1.7552.7079.232.2135.4293.4449.59.6943.1608.2494.2591.5076.2951.7746.0887.7479-.027 1.4289-.349 2.0433Zm-8.1761-12.4601c.3755-.2314.8266-.4365 1.3537-.6147a8.4366 8.4366 0 0 1 1.6221-.3737c.5535-.0709 1.0944-.0803 1.6221-.0268.5265.0535.9918.2002 1.3936.4405.4024.2405.7016.5879.8977 1.0416.1967.4545.2507 1.0288.1613 1.7231-.0714.552-.2908 1.0196-.6566 1.4022-.3664.3833-.8138.7035-1.3403.9617-.5277.2586-1.086.4632-1.6754.614-.5901.1518-1.158.2633-1.7025.3341-.5451.0715-1.0188.1162-1.4206.1335-.4023.018-.6662.0268-.791.0268l.5359-5.6623Zm11.0713 8.6805c-.2861-.6228-.6699-1.1704-1.1526-1.6428-.4821-.4716-1.0548-.8142-1.7156-1.0281.286-.2314.5672-.5963.8443-1.0951.277-.4982.5139-1.0417.7106-1.6293.1961-.5879.3304-1.1796.4018-1.7763.0713-.5963.0443-1.1084-.0798-1.536-.3046-1.0681-.7826-1.9051-1.435-2.5106-.6524-.6052-1.4116-1.0237-2.2781-1.2555-.8671-.2307-1.823-.2802-2.8682-.1467-1.0458.1335-2.1138.3961-3.2035.7879 0-.0888.0089-.1824.0269-.2803a1.7594 1.7594 0 0 0 .0265-.3073c0-.2671-.134-.4982-.402-.6943-.2679-.1959-.5764-.3114-.9246-.3474-.3486-.0352-.6884.04-1.0189.2271-.3309.187-.5588.5303-.6836 1.028a767.7627 767.7627 0 0 0-.4289 4.9948 628.5985 628.5985 0 0 1-.4557 5.2357 3638.752 3638.752 0 0 1-.4826 5.2482 657.3063 657.3063 0 0 1-.4825 5.008c.0537.4808.1877.8549.4023 1.1219.2143.2674.4646.4277.7505.4809.2857.0536.5854.004.8979-.1471.3125-.1507.5853-.4141.8179-.7878.7145.3917 1.5188.6455 2.4126.7614.8935.1155 1.8002.1155 2.7207 0 .9199-.1159 1.8272-.3338 2.7207-.6547.8935-.3202 1.7066-.7211 2.4394-1.2016.7328-.4808 1.3493-1.0287 1.85-1.6428.5001-.6146.8305-1.2778.9918-1.9897.1607-.7302.2051-1.4601.1337-2.1904-.0713-.7299-.25-1.4062-.536-2.0301Zm26.1514 14.1025c-.0984.5876-.2375 1.2063-.4156 1.8566-.1793.6495-.3892 1.2419-.6302 1.7762-.2411.5341-.5091.9654-.8036 1.2952-.2956.3293-.6128.4676-.9522.4144-.2681-.0362-.4378-.2054-.5092-.5076-.0713-.3033-.0713-.6771 0-1.122.0714-.4452.2099-.9484.4156-1.5092.2051-.5609.4557-1.1176.7502-1.6693a12.9248 12.9248 0 0 1 1.0056-1.5892c.3754-.5073.7682-.9305 1.1796-1.2687.0893.1068.1295.3738.1205.8014-.0096.4273-.063.9349-.1607 1.5222Zm9.0869-11.592c-.241-.2671-.536-.4182-.884-.4541-.349-.0356-.702.1603-1.059.5876-.233.4273-.527.837-.885 1.2287-.358.392-.728.7479-1.113 1.0684-.383.3202-.75.5967-1.098.8278-.349.2318-.621.4009-.8181.5076-.0714-.5696-.1116-1.1839-.1206-1.843a29.5853 29.5853 0 0 1 .0402-2.003 24.9699 24.9699 0 0 1 .3355-2.9115c.169-.9793.415-1.9409.737-2.885 0-.4981-.117-.9034-.349-1.2151-.232-.3115-.514-.5076-.844-.5876-.331-.08-.6698-.0356-1.0188.1335-.3485.1694-.6477.4768-.8977.9214a180.3518 180.3518 0 0 1-.737 1.9765 35.561 35.561 0 0 1-.9385 2.2304 22.4995 22.4995 0 0 1-1.1663 2.2036c-.4288.7126-.8978 1.3449-1.4075 1.8966-.5091.5519-1.0632.984-1.6616 1.2954-.5991.3118-1.2461.4497-1.9435.4141-.3221-.0891-.5541-.3294-.6975-.7214-.1427-.3914-.2278-.8814-.2542-1.469-.027-.5876 0-1.2331.0803-1.9366a27.7198 27.7198 0 0 1 .3215-2.0965c.1343-.6946.2818-1.3533.4425-1.9765s.3124-1.1487.4558-1.5761c.2146-.516.2146-.9484 0-1.2954-.2147-.3473-.5092-.5784-.8845-.6947-.3754-.1155-.7688-.1108-1.1796.0136-.4114.1247-.7064.4005-.8845.8278-.304.7306-.5811 1.5493-.8311 2.4574-.2507.9082-.4516 1.8478-.6033 2.8179-.1523.9709-.2374 1.9326-.2548 2.8851-.0007.0361 0 .0712.0007.1064l.0003.012.0003.0176c.0003.0154.0005.0309.0005.0466-.3898 1.0352-.7616 1.8177-1.1142 2.3412-.4558.6771-.9697.9708-1.5412.8814-.2506-.1068-.4155-.3558-.4959-.7479-.0809-.3914-.1079-.8722-.0809-1.4425.0275-.5693.0941-1.2148.2009-1.9362.1079-.7211.2416-1.469.4023-2.2436.1613-.775.331-1.5533.5091-2.3371.1787-.7834.3395-1.5225.4834-2.2172-.018-.6231-.2015-1.0992-.5499-1.4289-.3484-.329-.8359-.4581-1.4608-.3873-.4288.1782-.7466.41-.9523.6946-.2057.2847-.3706.6499-.4953 1.0949-.0719.2318-.1793.6946-.322 1.3893-.1433.694-.3262 1.4913-.5493 2.3903-.2237.8996-.4869 1.8386-.791 2.818-.304.9792-.6434 1.8657-1.0182 2.6576-.376.7922-.7868 1.4289-1.2335 1.9098-.4467.4805-.9295.6767-1.4476.5876-.286-.0536-.4689-.3474-.5493-.8814-.0803-.5344-.0941-1.1928-.0402-1.9766.0534-.7834.1607-1.6428.3215-2.5773.1607-.9349.3256-1.8207.4959-2.658.1697-.8366.3262-1.576.4695-2.2168.1427-.6411.2411-1.0684.2945-1.2819 0-.5165-.1164-.9302-.3485-1.2423-.2326-.311-.5139-.5072-.8443-.5875-.331-.08-.6704-.0356-1.0188.1334-.3484.1695-.6476.4768-.8983.9214-.0894.4808-.2057 1.0376-.3484 1.6696a78.9032 78.9032 0 0 0-.415 1.9498 101.3648 101.3648 0 0 0-.3754 1.9633c-.1163.6411-.2014 1.2019-.2548 1.6827-.036.3738-.0762.8326-.1206 1.3755-.0449.5435-.0671 1.1175-.0671 1.7228 0 .6058.0444 1.2066.1343 1.803.0888.5967.2501 1.1443.4821 1.6425.2321.4988.5583.9081.9787 1.2287.4198.3205.9517.4984 1.5951.5343.6608.0353 1.2371-.0132 1.7288-.1471.4918-.1335.9379-.3429 1.3403-.6278.4024-.2844.7681-.6229 1.0992-1.0149.3304-.3914.6566-.8187.9786-1.2819.3035.677.6968 1.2019 1.1796 1.576.4821.3738.9918.5967 1.5279.6675.5355.0709 1.0812-.004 1.6353-.227.5535-.2223 1.0536-.6008 1.5009-1.1352.2945-.3276.5721-.7.8324-1.1117.1103.1928.2279.3788.3604.5506.4383.5703 1.0326.9617 1.7834 1.1755.8035.2138 1.5897.2498 2.3585.1071.7681-.1424 1.5009-.4009 2.1977-.7747a10.361 10.361 0 0 0 1.9441-1.349c.5985-.5252 1.1208-1.0725 1.5682-1.6427-.0186.4097-.027.7973-.027 1.1619 0 .3653-.009.7611-.027 1.1888-.8935.6234-1.7378 1.3713-2.533 2.2435-.7957.8722-1.4926 1.8027-2.091 2.7912-.5985.9881-1.068 1.9898-1.4068 3.0046-.34 1.0156-.5056 1.9633-.4966 2.8451.009.8813.2189 1.6512.6297 2.31.4114.659 1.0812 1.1307 2.0107 1.4157.9654.303 1.8139.3114 2.5467.0268.7328-.285 1.3715-.757 1.9166-1.4157.5451-.6588.9918-1.4555 1.3408-2.3904.3484-.9349.6255-1.9098.8305-2.9246.2057-1.0149.3353-2.0129.3886-2.9915.054-.9796.054-1.8525 0-2.618 1.5365-.6408 2.7965-1.451 3.7795-2.4306.983-.9786 1.796-2.0118 2.44-3.0982.196-.267.264-.5876.201-.9613-.063-.3741-.215-.6947-.456-.9617Zm34.057-3.0046c-.107.454-.187.8861-.241 1.2954-.054.4097-.063.7394-.027.9881.822-.1603 1.475-.4981 1.957-1.0148.483-.5165.817-1.0681 1.006-1.6561.187-.5875.249-1.1392.187-1.6563-.063-.5161-.228-.8542-.496-1.0149-.25-.1599-.496-.1731-.737-.0399-.241.1338-.469.3564-.684.6678-.215.3118-.402.6811-.562 1.1085-.162.4273-.296.8681-.403 1.3222Zm8.203 2.3638c.268-.0711.549-.062.844.0265.295.0894.545.2453.751.4676.205.2229.272.4768.201.7611-.393 1.0331-.781 1.9497-1.166 2.7515-.385.8011-.809 1.5089-1.273 2.1233-.465.6143-.988 1.1351-1.569 1.5625-.581.4272-1.264.7834-2.05 1.0684-1.055.3738-2.028.5384-2.922.4943-.894-.0447-1.672-.2805-2.332-.7078-.661-.4277-1.184-1.0329-1.569-1.8163-.032-.0663-.06-.1375-.088-.2087l-.001-.0017v-.0012c-.014-.0341-.027-.0681-.041-.1015-.007.0095-.015.0193-.022.0291l-.011.0157-.007.0086c-.014.02-.029.0401-.044.0595a6.7852 6.7852 0 0 1-2.024 1.7091c-.786.4361-1.689.6544-2.708.6544-.679 0-1.237-.1827-1.675-.5476-.438-.3649-.782-.8099-1.032-1.3354-.25-.5249-.42-1.082-.509-1.6693-.09-.5876-.134-1.1039-.134-1.5493 0-.6411.04-1.2551.12-1.843a33.929 33.929 0 0 1 .282-1.7227c.108-.5608.201-1.104.281-1.6293.081-.5252.121-1.0372.121-1.536 0-.6767-.076-1.2107-.228-1.6024-.152-.3914-.371-.5876-.656-.5876-.555 0-1.077.3253-1.569.9749-.491.6499-.938 1.4869-1.34 2.5109-.402 1.0241-.76 2.1812-1.073 3.4722-.312 1.2911-.558 2.5774-.737 3.8593-.054.4456-.25.7611-.589.9481-.34.1871-.702.2586-1.086.2139-.384-.0444-.733-.1871-1.046-.4273-.312-.2406-.468-.5652-.468-.9749.035-.2311.093-.6544.174-1.2687.08-.6144.151-1.3131.214-2.0969.063-.7834.098-1.598.108-2.4438.008-.8455-.045-1.6248-.162-2.3374-.116-.7116-.313-1.2952-.589-1.7495-.278-.4541-.666-.6808-1.166-.6808-.412 0-.805.1914-1.18.5743-.375.383-.737.8946-1.085 1.5358-.349.6411-.667 1.3798-.952 2.2167-.287.8374-.541 1.7187-.764 2.6445-.224.9261-.411 1.861-.563 2.8044-.152.944-.255 1.8342-.308 2.6712-.054.4449-.264.7563-.631.9349-.365.1775-.755.2491-1.165.2134-.412-.0359-.778-.1694-1.1-.4005-.322-.2314-.464-.5343-.428-.9084.249-1.6201.433-3.0447.549-4.2734.116-1.2286.183-2.3011.201-3.2184.018-.917.005-1.6916-.04-2.3239-.045-.632-.103-1.1707-.174-1.6161-.072-.4445-.148-.8054-.228-1.0816-.08-.2761-.13-.5117-.148-.7078-.035-.267-.013-.5033.068-.7079.08-.2047.196-.3778.348-.5208.151-.1423.326-.2539.523-.3342.196-.0799.393-.1199.59-.1199.393 0 .696.0627.911.187.215.1248.379.3071.496.5477.116.2402.196.534.241.881.044.3477.084.7526.121 1.2154.231-.3913.5-.7878.804-1.1883a6.9257 6.9257 0 0 1 1.018-1.082 5.1895 5.1895 0 0 1 1.247-.7878c.456-.2044.952-.3071 1.488-.3071.553 0 1.081.1027 1.582.3071.499.205.951.49 1.353.8546.403.3653.741.7925 1.019 1.2822.277.49.486 1.0193.63 1.5892.392-.7478.826-1.4598 1.3-2.1368.473-.6767 1.112-1.2019 1.917-1.576.804-.3738 1.554-.4808 2.252-.3203.696.16 1.308.4849 1.836.975.526.4896.942 1.1043 1.246 1.8427.304.7394.456 1.5092.456 2.3106 0 .9261-.059 1.8963-.174 2.9111a237.7144 237.7144 0 0 0-.309 2.8315c-.089.8726-.12 1.6025-.094 2.1904.027.5873.184.9173.469.9882.483.1246.948-.0177 1.395-.4274.446-.4093.853-.9169 1.219-1.5224.366-.6052.688-1.224.965-1.8567.041-.0932.078-.1768.116-.2639.015-.6859.059-1.3965.139-2.1396.089-.8281.232-1.6695.429-2.5245.196-.8545.464-1.6512.804-2.3903.339-.7387.764-1.3889 1.274-1.9497.509-.5612 1.129-.9661 1.862-1.2155.608-.2135 1.207-.2938 1.796-.2403.59.0532 1.113.2403 1.568.5608.456.3203.818.7706 1.086 1.349.268.5788.393 1.2863.376 2.1233-.036.8905-.198 1.7854-.483 2.6844-.286.8993-.706 1.7096-1.26 2.4307-.554.721-1.229 1.3001-2.023 1.7359-.796.4368-1.703.6191-2.722.5476.018.5524.081 1.0864.188 1.6028s.282.9573.523 1.3222c.241.365.567.6235.978.7743.411.1515.929.1295 1.555-.0667.625-.1779 1.224-.4717 1.796-.8814a8.6446 8.6446 0 0 0 1.542-1.4154c.455-.5344.839-1.0996 1.152-1.6963.313-.5964.54-1.1796.684-1.7492.071-.303.241-.49.509-.5612Zm15.414-2.9524c-.09.5255-.211 1.1046-.363 1.7363-.152.6323-.344 1.2866-.576 1.9633-.233.6767-.518 1.2867-.857 1.8295-.34.5435-.729.9749-1.167 1.2955-.438.3205-.942.454-1.515.4005-.286-.0353-.504-.2311-.656-.5876-.152-.3558-.233-.8102-.242-1.3622-.009-.5516.04-1.1572.148-1.8163a11.23 11.23 0 0 1 .496-1.9365c.223-.6317.496-1.2152.817-1.7496.322-.534.693-.9481 1.113-1.2419.42-.2938.88-.4314 1.38-.4141.5.018 1.037.267 1.609.7479a91.206 91.206 0 0 1-.187 1.1352Zm9.529 2.0433c-.277-.1423-.563-.1732-.858-.0932-.295.08-.505.3518-.63.8146-.071.4988-.232 1.086-.482 1.7627-.251.6768-.559 1.3182-.925 1.9231-.367.6055-.787 1.1087-1.26 1.5092-.474.4009-.978.5835-1.514.5473-.448-.0353-.761-.2623-.939-.6808-.179-.4184-.273-.9433-.281-1.576-.01-.6317.053-1.3439.187-2.1365.134-.7922.295-1.5801.483-2.3642.187-.7831.379-1.5357.577-2.2568.196-.7211.356-1.331.482-1.8295.143-.4452.098-.8234-.135-1.1355-.232-.3111-.522-.5341-.87-.6676-.349-.1334-.702-.1691-1.06-.1067-.357.0624-.589.2538-.697.574-1.054-.9081-2.068-1.3978-3.042-1.4689-.974-.0712-1.873.1426-2.694.6411-.822.4985-1.55 1.2196-2.185 2.1636-.634.9441-1.148 1.9721-1.541 3.085-.393 1.1128-.639 2.2483-.737 3.4055-.099 1.1575-.023 2.2127.227 3.1652.251.9526.692 1.7319 1.327 2.3368.634.6056 1.497.9085 2.587.9085.483 0 .947-.0979 1.394-.2938.447-.1962.858-.4276 1.234-.6947.374-.267.705-.5475.991-.8414.286-.2937.51-.5384.67-.7346.125.6411.331 1.1847.617 1.6296.286.4449.612.8105.978 1.0948.366.2847.751.4941 1.153.6279.402.1335.791.2003 1.166.2003.84 0 1.626-.285 2.359-.855.733-.5692 1.39-1.2686 1.971-2.0965.58-.8281 1.058-1.7004 1.434-2.6176.375-.917.625-1.7316.75-2.4442.125-.267.103-.5472-.067-.8411-.17-.2937-.393-.5116-.67-.6546Zm47.542 16.2813c.322-.4181.559-.9305.71-1.5357.152-.6055.21-1.2686.175-1.9897-.036-.7211-.161-1.3934-.376-2.0166-.214-.6235-.522-1.1619-.924-1.616-.402-.4544-.908-.7167-1.515-.7878-.036.3029-.085.7295-.147 1.2818a39.949 39.949 0 0 0-.161 1.7896c-.045.6411-.072 1.291-.081 1.9498-.009.6587.018 1.2554.081 1.7898.063.534.174.9702.335 1.3087.161.3381.393.4984.697.4808.482-.0179.885-.2362 1.206-.6547Zm-9.704 0c.322-.4181.559-.9305.711-1.5357.151-.6055.209-1.2686.174-1.9897-.036-.7211-.161-1.3934-.375-2.0166-.215-.6235-.523-1.1619-.926-1.616-.401-.4544-.906-.7167-1.514-.7878-.036.3029-.085.7295-.147 1.2818a39.949 39.949 0 0 0-.161 1.7896 33.681 33.681 0 0 0-.08 1.9498c-.01.6587.017 1.2554.08 1.7898.062.534.174.9702.335 1.3087.161.3381.393.4984.697.4808.483-.0179.884-.2362 1.206-.6547Zm-9.369-15.5718c.063-.3294.103-.7079.121-1.1349.017-.4276.009-.8725-.027-1.3357-.036-.4629-.098-.8723-.187-1.2287-.09-.3562-.206-.6276-.349-.8147-.144-.187-.313-.227-.509-.1203-.5.3033-.783.7259-.845 1.2687-.063.5436-.013 1.0952.147 1.656.162.5608.385 1.0644.671 1.5093.285.4456.527.7211.724.8282.107-.0892.191-.2979.254-.6279Zm-3.176 4.9547c.339-.2138.648-.4676.925-.761.276-.2938.487-.592.63-.8949-.501-.3026-.925-.6676-1.274-1.0952-.348-.4273-.648-.8987-.898-1.4158-.393-.8546-.626-1.7671-.697-2.7376-.071-.9701 0-1.9098.215-2.8179-.573.125-1.099.4408-1.582.9484-.482.5073-.894 1.1128-1.233 1.8163-.34.7035-.581 1.4645-.724 2.2835-.143.819-.156 1.5893-.04 2.3107.116.7211.389 1.3487.818 1.8827.428.5341 1.045.8817 1.849 1.0416.286.0536.608.0271.965-.0799.358-.1067.706-.267 1.046-.4809Zm30.827-7.1183c-.107.454-.187.8864-.241 1.2958-.054.4097-.063.739-.027.9881.823-.1603 1.475-.4981 1.957-1.0152.483-.5161.817-1.0682 1.005-1.6557.188-.5879.25-1.1396.188-1.6563-.063-.5161-.228-.8543-.496-1.0149-.25-.1603-.496-.1735-.737-.04-.241.1335-.469.3565-.684.6679-.214.3114-.402.6807-.563 1.1084-.16.4273-.295.8681-.402 1.3219Zm10.803 0c-.107.454-.187.8864-.241 1.2958-.054.4097-.062.739-.027.9881.823-.1603 1.475-.4981 1.957-1.0152.483-.5161.818-1.0682 1.006-1.6557.187-.5879.25-1.1396.187-1.6563-.063-.5161-.227-.8543-.496-1.0149-.25-.1603-.495-.1735-.737-.04-.241.1335-.469.3565-.684.6679-.214.3114-.401.6807-.562 1.1084a10.907 10.907 0 0 0-.403 1.3219Zm9.048 2.3906c.295.0894.545.2454.75.4677.205.2226.273.4764.202.761-.394 1.0332-.782 1.9498-1.167 2.7512-.385.8011-.808 1.5089-1.273 2.1236-.465.614-.987 1.1348-1.568 1.5625-.581.4273-1.264.7834-2.051 1.0681-1.054.3741-2.028.5384-2.922.4944-.893-.0444-1.671-.2806-2.332-.7076-.661-.4276-1.184-1.0328-1.568-1.8166-.109-.222-.201-.4615-.284-.7109-.011.0158-.023.0322-.034.0487-.015.0207-.029.0415-.044.0614-.465.614-.988 1.1348-1.568 1.5625-.581.4273-1.265.7834-2.051 1.0681-1.055.3741-2.028.5384-2.922.4944-.894-.0444-1.672-.2806-2.332-.7076-.662-.4276-1.184-1.0328-1.569-1.8166-.315-.6424-.513-1.4062-.605-2.2771-.244.1718-.488.3388-.735.5008-.473.3118-.933.5924-1.38.8414-.447.2498-.831.4188-1.153.5073.536.5879.956 1.3358 1.26 2.2442.304.9078.491 1.8736.563 2.8976.071 1.024.022 2.0436-.147 3.0585-.171 1.0149-.461 1.9095-.872 2.6845-.411.7746-.947 1.3842-1.608 1.8294-.661.445-1.448.6053-2.359.4809-.858-.1068-1.551-.4364-2.078-.9881-.527-.5524-.933-1.2247-1.22-2.0166-.285-.7926-.473-1.6742-.562-2.6444a26.1675 26.1675 0 0 1-.107-2.885c.018-.9526.058-1.8607.12-2.7245.063-.8634.103-1.5889.121-2.1765 0-.2636.022-.7136.066-1.3445-.045.03-.089.0603-.133.0905-.071.049-.143.098-.215.1453-.473.3118-.934.5924-1.38.8414-.447.2498-.831.4188-1.153.5073.536.5879.956 1.3358 1.26 2.2442.304.9078.492 1.8736.563 2.8976.071 1.024.022 2.0436-.148 3.0585-.169 1.0149-.46 1.9095-.87 2.6845-.412.7746-.948 1.3842-1.609 1.8294-.662.445-1.448.6053-2.359.4809-.858-.1068-1.55-.4364-2.078-.9881-.527-.5524-.934-1.2247-1.219-2.0166-.286-.7926-.473-1.6742-.563-2.6444a25.924 25.924 0 0 1-.107-2.885c.017-.9526.057-1.8607.12-2.7245.063-.8634.103-1.5889.12-2.1765 0-.3385.037-.9792.108-1.923.006-.0719.011-.1484.017-.2244.003-.0339.005-.0677.008-.1009-1.01.3406-2.037.5121-3.081.5121-.697 1.2283-1.59 2.1595-2.681 2.7911-1.09.6324-2.278.9569-3.565.9749-1.197.0173-2.208-.2226-3.029-.7211-.822-.4985-1.474-1.1487-1.957-1.9498-.182-.3032-.333-.6272-.469-.962-.297.3067-.605.5927-.925.8549-.608.4988-1.242.9265-1.903 1.2823-.661.3561-1.305.6503-1.93.8814-.482.1786-.992.3165-1.528.414-.536.0976-1.077.12-1.622.0668a5.045 5.045 0 0 1-1.568-.4137c-.501-.2227-.947-.5747-1.34-1.0556-.465-.5516-.828-1.2372-1.086-2.0565-.259-.8187-.425-1.6912-.497-2.6177-.071-.9254-.048-1.8783.068-2.8576.116-.9793.312-1.9101.59-2.7915.277-.8814.634-1.6824 1.072-2.4039.438-.7211.943-1.2859 1.515-1.6959.929-.6232 1.836-.9125 2.72-.8682.885.0448 1.586.4409 2.105 1.1888.411.0531.741.2582.991.6143.25.3562.322.7655.215 1.2287l-.375 3.392c-.036 0-.063-.0089-.081-.0268-.196.4276-.451.7393-.764.9349-.313.1962-.63.2718-.951.227-.322-.044-.613-.2003-.872-.4672-.259-.2671-.433-.6412-.523-1.122 0-.2311.027-.5208.081-.8682.054-.347.094-.6851.121-1.0149.026-.3293.013-.6143-.04-.8549-.054-.2402-.197-.3778-.43-.4137-.411.2314-.768.6191-1.072 1.1616-.304.5435-.554 1.1578-.75 1.8434-.197.6855-.335 1.4113-.415 2.1768-.081.7655-.108 1.5001-.081 2.2036.027.7038.116 1.331.268 1.883.152.552.371.9529.657 1.202.357.3385.751.5434 1.179.6143.429.0715.876.0623 1.341-.0268.392-.0708.839-.2043 1.34-.4005.5-.1959 1.005-.4809 1.515-.8549.509-.3738 1-.8546 1.474-1.4422.334-.4141.636-.9075.913-1.472.009-.4385.041-.878.105-1.3195.152-1.0414.456-2.0566.912-3.0447.456-.9884 1.041-1.8471 1.756-2.5777.715-.7299 1.559-1.2859 2.533-1.6692.974-.3826 2.068-.4941 3.284-.3341.822-.267 1.541-.3202 2.158-.16.616.16 1.13.4717 1.541.9346.411.4636.737 1.0376.979 1.7228.241.6858.406 1.4117.495 2.1768.036.3565.058.7479.068 1.1755.008.4273 0 .8549-.027 1.2819a24.027 24.027 0 0 1-.108 1.2287c-.045.3917-.102.7479-.174 1.0687.429-.0175.813-.0755 1.153-.1738.332-.0955.638-.2094.919-.3392l.003-.0369.003-.038c.098-1.2819.214-2.6617.348-4.1401.134-1.4778.268-2.9111.402-4.3001.134-1.389.268-2.6713.403-3.8464.133-1.1752.263-2.1009.388-2.778.25-.4446.567-.7295.951-.8545.385-.1244.747-.1336 1.086-.0265.34.1068.617.3026.831.5876.215.285.269.614.161.9881l-1.662 17.7355a8.523 8.523 0 0 0 2.252-.4673 12.0638 12.0638 0 0 0 2.118-.9885 16.119 16.119 0 0 0 1.943-1.349c.111-.0891.216-.1793.322-.2695.049-.0422.098-.0845.148-.1265l.003-.0389a6.281 6.281 0 0 1 .01-.1259c.098-1.2819.214-2.6617.348-4.1401.134-1.4778.268-2.9111.402-4.3001.134-1.389.268-2.6713.402-3.8464.134-1.1752.264-2.1009.389-2.778.25-.4446.567-.7295.952-.8545.383-.1244.746-.1336 1.085-.0265.34.1068.617.3026.832.5876.214.285.267.614.161.9881l-1.663 17.7355a8.523 8.523 0 0 0 2.252-.4673 12.0638 12.0638 0 0 0 2.118-.9885 16.0402 16.0402 0 0 0 1.943-1.349c.129-.1037.252-.2089.375-.3141.048-.0414.097-.0829.145-.1243.026-.4446.06-.8973.11-1.3643a21.65 21.65 0 0 1 .429-2.5241c.197-.855.465-1.6513.804-2.3907.34-.7383.764-1.3886 1.274-1.9498.509-.5608 1.13-.9657 1.862-1.2154.608-.2132 1.207-.2938 1.796-.2403.59.0535 1.113.2403 1.568.5611.456.3203.818.7703 1.086 1.3487.269.5788.393 1.2867.376 2.1236-.036.8905-.197 1.7851-.483 2.6845-.286.8993-.706 1.7095-1.26 2.4303-.554.7211-1.228 1.3001-2.024 1.7363-.795.4367-1.702.6191-2.72.5475a9.286 9.286 0 0 0 .187 1.6025c.108.5167.282.9573.523 1.3226.241.3649.568.6232.978.7743.411.1514.929.1294 1.555-.0671.626-.1776 1.224-.4714 1.796-.8811a8.5686 8.5686 0 0 0 1.541-1.4157c.456-.5341.841-1.0993 1.153-1.6963.078-.1485.15-.2959.218-.4426.01-.736.058-1.5049.145-2.3083.089-.8278.231-1.6695.428-2.5241.197-.855.465-1.6513.805-2.3907.339-.7383.764-1.3886 1.273-1.9498.509-.5608 1.13-.9657 1.863-1.2154.607-.2132 1.206-.2938 1.796-.2403.59.0535 1.112.2403 1.568.5611.456.3203.818.7703 1.085 1.3487.268.5788.393 1.2867.376 2.1236-.036.8905-.197 1.7851-.482 2.6845-.286.8993-.707 1.7095-1.26 2.4303-.554.7211-1.23 1.3001-2.024 1.7363-.795.4367-1.703.6191-2.721.5475.018.5524.081 1.0864.187 1.6025.108.5167.282.9573.523 1.3226.241.3649.568.6232.978.7743.412.1514.93.1294 1.556-.0671.625-.1776 1.223-.4714 1.796-.8811a8.6365 8.6365 0 0 0 1.541-1.4157c.456-.5341.839-1.0993 1.152-1.6963.313-.5961.541-1.1793.684-1.7492.071-.3026.241-.4897.509-.5608.269-.0712.55-.0624.845.0264Z" clip-rule="evenodd"/>
</svg>
